<?xml version="1.0" standalone="no"?>
<!DOCTYPE svg PUBLIC "-//W3C//DTD SVG 20010904//EN"
 "http://www.w3.org/TR/2001/REC-SVG-20010904/DTD/svg10.dtd">
<svg version="1.0" xmlns="http://www.w3.org/2000/svg"
 width="937.000000pt" height="937.000000pt" viewBox="0 0 937.000000 937.000000"
 preserveAspectRatio="xMidYMid meet">
<metadata>
Created by potrace 1.11, written by Peter Selinger 2001-2013
</metadata>
<g transform="translate(0.000000,937.000000) scale(0.100000,-0.100000)"
fill="#000000" stroke="none">
<path d="M2133 9193 c8 -93 14 -388 28 -1223 9 -564 28 -1386 45 -1959 7 -228
7 -230 -42 -231 -12 0 -32 -9 -45 -21 -21 -18 -21 -20 -4 -13 11 4 34 8 50 8
28 1 30 -2 33 -37 4 -47 -14 -56 -69 -34 -29 11 -39 12 -39 3 0 -20 -117 -76
-158 -76 -56 0 -344 -99 -335 -114 5 -7 25 -28 46 -45 32 -29 37 -39 37 -78 0
-46 -8 -60 -50 -81 -14 -7 -52 -27 -86 -46 -34 -18 -85 -41 -115 -51 -30 -9
-80 -30 -111 -46 -32 -16 -67 -29 -77 -29 -11 0 -35 -9 -53 -19 -18 -11 -64
-31 -103 -46 -38 -16 -82 -36 -97 -46 -14 -11 -33 -19 -42 -19 -9 0 -24 -4
-34 -9 -9 -5 -45 -20 -80 -32 -56 -22 -79 -46 -38 -43 9 1 16 -2 16 -7 0 -5
21 -9 48 -9 36 0 54 6 76 25 16 14 33 25 37 25 4 0 10 8 14 18 3 11 31 32 63
48 31 16 60 33 64 38 3 5 19 10 34 12 16 2 53 15 82 30 53 27 55 27 87 10 31
-17 34 -17 111 9 43 15 93 32 109 40 17 7 64 25 105 40 41 14 110 44 154 66
61 32 91 41 136 43 32 1 64 6 71 12 15 10 201 10 219 -1 6 -3 10 -46 10 -100
0 -53 4 -97 10 -100 6 -4 26 3 45 15 62 39 185 21 185 -26 0 -9 18 -34 40 -56
43 -44 45 -54 42 -188 -1 -30 -2 -104 -3 -164 -1 -96 -4 -112 -25 -143 -28
-42 -29 -52 -9 -60 14 -5 14 -8 -2 -25 -13 -15 -18 -37 -18 -87 0 -88 9 -119
38 -123 14 -2 23 -11 25 -27 2 -13 12 -26 23 -28 10 -3 19 -13 19 -22 0 -23
26 -58 36 -48 5 4 2 18 -6 30 -11 17 -14 57 -12 183 2 89 -1 172 -6 185 -9 24
-2 124 18 234 36 207 56 393 64 610 3 72 10 171 16 220 5 50 12 122 15 160 3
39 9 89 14 113 5 24 6 72 3 108 -4 50 -1 68 11 82 11 12 17 45 21 106 3 57 10
94 19 105 14 15 26 57 33 106 1 11 3 22 3 24 1 2 7 -2 15 -8 11 -10 16 -8 21
8 3 12 11 21 16 21 5 0 9 11 9 24 0 30 27 96 40 96 6 0 10 -4 10 -10 0 -5 5
-10 11 -10 6 0 9 7 5 15 -3 8 -1 15 5 15 5 0 17 16 25 35 8 19 19 35 25 35 7
0 23 12 36 26 15 16 30 24 40 20 8 -4 21 -2 28 4 13 11 42 9 64 -4 7 -5 16 -5
20 0 9 13 89 16 96 4 8 -13 55 -13 55 1 0 5 15 17 33 25 17 9 45 22 61 31 21
11 36 13 55 6 19 -7 37 -4 66 8 48 21 212 33 280 20 35 -6 54 -5 73 5 38 20
103 27 134 15 20 -8 29 -7 39 5 6 8 14 13 16 11 2 -3 32 2 66 10 34 8 78 17
97 20 19 3 45 15 58 26 13 12 22 16 22 8 0 -7 10 -11 23 -10 12 2 27 0 34 -4
7 -4 23 -1 37 8 35 23 173 65 236 72 30 4 61 13 69 20 8 9 23 12 38 8 14 -3
30 -2 36 4 7 5 26 11 42 14 17 3 56 12 89 22 35 10 73 15 95 11 20 -3 61 -8
91 -12 30 -3 56 -10 58 -15 2 -4 10 -5 18 -2 8 3 21 0 29 -7 9 -7 18 -10 22
-6 3 3 16 0 28 -8 12 -8 48 -17 81 -21 32 -4 65 -12 71 -17 7 -6 20 -8 28 -4
9 3 18 -1 21 -9 4 -8 16 -15 29 -15 12 0 28 -7 35 -15 7 -8 18 -15 26 -15 7 0
18 -9 24 -20 6 -11 17 -19 24 -18 16 4 96 -62 96 -79 0 -7 9 -18 20 -25 11 -7
20 -19 20 -26 0 -21 23 -24 67 -8 31 11 43 12 47 3 2 -7 5 -1 6 13 1 14 4 19
7 12 3 -9 9 -10 17 -3 7 6 26 7 48 2 34 -8 65 -34 141 -119 16 -18 38 -32 50
-32 26 0 100 -73 102 -101 2 -18 14 -35 58 -77 9 -9 17 -27 17 -39 0 -20 4
-22 24 -17 14 3 27 1 31 -7 6 -9 2 -11 -13 -7 -19 5 -21 2 -19 -20 2 -15 11
-38 20 -52 10 -16 17 -51 19 -98 2 -53 7 -72 17 -72 11 0 13 -16 9 -84 -5 -79
-4 -86 17 -106 20 -19 22 -29 19 -83 -2 -34 1 -90 6 -124 6 -34 10 -110 9
-170 -2 -225 2 -421 12 -518 23 -222 26 -252 36 -270 5 -11 8 -83 7 -160 -4
-196 1 -232 32 -238 16 -3 28 1 33 12 12 21 17 170 7 199 -5 16 -3 29 8 41 9
10 14 25 10 34 -3 9 3 48 15 86 12 38 21 83 21 99 0 19 7 36 18 44 10 7 22 27
25 45 7 34 43 83 62 83 7 0 34 27 61 59 54 66 81 80 136 71 50 -9 80 -31 115
-84 29 -44 30 -47 36 -223 7 -169 6 -183 -18 -278 -38 -149 -44 -183 -60 -364
-8 -91 -22 -191 -31 -221 -17 -59 -93 -223 -106 -228 -4 -2 -8 -8 -8 -13 0
-16 -65 -107 -91 -127 -68 -52 -128 -57 -213 -16 l-38 19 -19 -24 c-10 -13
-19 -30 -19 -38 0 -8 -8 -27 -19 -41 -12 -18 -19 -47 -20 -87 -2 -85 -12 -149
-25 -157 -8 -5 -7 -8 2 -8 7 0 10 -4 7 -10 -9 -14 -62 -12 -68 3 -4 7 -6 6 -6
-4 -1 -9 -10 -19 -20 -22 -17 -4 -18 -10 -10 -52 5 -26 6 -52 2 -59 -4 -6 -6
-20 -4 -31 3 -16 1 -17 -13 -6 -9 8 -20 10 -24 6 -4 -4 -1 -10 6 -12 6 -3 12
-14 12 -26 -1 -20 -2 -21 -14 -5 -14 19 -66 25 -66 7 0 -5 -5 -7 -12 -3 -7 4
-8 3 -4 -5 8 -12 -16 -41 -33 -41 -6 0 -11 -4 -11 -10 0 -5 -9 -10 -19 -10
-11 0 -23 -9 -26 -20 -7 -21 -25 -28 -25 -10 0 18 -29 10 -45 -12 -13 -20 -17
-21 -25 -8 -14 20 -8 72 8 78 6 2 12 -3 12 -12 0 -9 4 -16 9 -16 17 0 33 29
26 50 -5 16 -10 18 -24 10 -14 -7 -23 -4 -41 15 -12 13 -20 27 -17 32 3 4 -1
14 -8 20 -11 10 -15 9 -20 -8 -4 -12 -8 -28 -9 -35 -1 -8 -12 -23 -25 -35 -14
-13 -21 -29 -18 -40 3 -11 1 -19 -4 -19 -5 0 -9 5 -9 11 0 11 -60 39 -85 39
-8 0 -15 -5 -15 -12 0 -7 -26 -38 -57 -70 -50 -51 -62 -58 -98 -59 -54 -1 -68
-8 -104 -52 -29 -37 -31 -62 -7 -80 7 -5 5 -12 -6 -20 -11 -9 -15 -21 -11 -36
5 -20 -1 -41 -29 -95 -8 -15 -6 -21 7 -29 14 -8 15 -11 4 -18 -10 -6 -6 -9 14
-9 18 0 27 -5 27 -15 0 -9 9 -34 19 -55 21 -43 10 -65 -15 -34 -14 18 -15 17
-9 -9 6 -29 -11 -37 -32 -16 -16 16 -26 -6 -11 -23 17 -17 22 -48 8 -48 -5 0
-10 8 -10 18 -1 14 -4 13 -21 -8 l-21 -24 21 -17 c27 -22 26 -29 -3 -29 -26 0
-41 31 -23 49 6 6 7 11 2 12 -6 0 -23 2 -38 4 -36 5 -41 -9 -29 -74 9 -49 8
-51 -14 -51 -12 0 -24 -3 -26 -7 -1 -5 -20 -20 -40 -35 -20 -16 -38 -38 -40
-50 -2 -16 -12 -24 -30 -28 -15 -3 -37 -13 -48 -23 -11 -9 -28 -17 -38 -17
-10 0 -27 -7 -38 -15 -25 -19 -44 -19 -44 0 0 8 -9 15 -20 15 -11 0 -20 4 -20
8 0 5 -14 7 -30 4 -17 -2 -40 2 -54 11 -21 14 -26 14 -51 -2 -29 -17 -29 -17
-63 21 l-34 38 -19 -24 c-10 -13 -19 -29 -19 -35 0 -6 -11 -11 -24 -11 -14 0
-28 -5 -31 -10 -4 -6 -16 -8 -27 -4 -13 4 -24 0 -33 -12 -12 -17 -16 -17 -40
-4 -24 13 -28 13 -40 -3 -9 -12 -15 -15 -20 -7 -4 6 -19 10 -33 9 -15 -1 -36
2 -47 7 -19 8 -19 8 5 15 19 6 14 7 -20 7 -25 0 -58 3 -74 7 -23 6 -28 5 -24
-6 4 -11 -5 -14 -37 -14 -30 0 -42 4 -41 14 1 8 -4 16 -10 18 -10 3 -15 -5
-47 -77 l-15 -35 -7 28 c-4 15 -11 27 -16 27 -14 0 -11 18 4 23 6 2 1 2 -13 0
-14 -2 -30 -11 -36 -19 -6 -7 -18 -14 -25 -14 -8 0 -22 -9 -32 -20 -19 -22
-33 -25 -42 -9 -4 6 1 16 10 23 17 12 16 13 -6 19 -18 5 -29 1 -46 -18 -12
-14 -25 -25 -29 -25 -4 0 -12 -7 -19 -16 -9 -13 -16 -14 -33 -5 -11 6 -27 8
-35 5 -9 -3 -24 -1 -35 5 -13 7 -22 7 -30 -1 -9 -9 -12 -8 -12 3 0 8 4 19 10
25 12 12 1 54 -14 54 -7 0 -12 -10 -12 -22 1 -17 -5 -24 -21 -26 -27 -4 -31
19 -7 42 16 17 17 16 -53 41 -7 2 -13 14 -13 25 0 20 -14 24 -82 24 -21 0 -49
47 -31 53 21 7 -7 53 -33 53 -13 0 -24 7 -27 17 -4 17 -5 17 -6 1 -1 -24 -17
-23 -24 2 -3 13 -14 20 -28 20 -12 0 -19 3 -15 8 4 4 13 7 19 7 6 0 13 15 14
33 2 23 -1 32 -12 32 -23 0 -18 28 11 57 26 25 26 26 7 52 -15 21 -16 32 -9
59 7 20 17 32 27 32 30 0 32 20 3 30 -32 13 -54 7 -54 -15 0 -8 -4 -15 -10
-15 -5 0 -10 9 -10 20 0 11 7 20 16 20 8 0 12 5 9 10 -3 6 1 13 10 16 9 4 14
13 10 21 -3 9 4 24 16 34 17 14 18 19 7 19 -9 0 -21 6 -27 14 -6 7 -25 16 -41
20 -24 4 -30 11 -30 31 0 16 6 25 15 25 8 0 15 6 15 14 0 8 3 23 6 33 5 14 4
15 -4 4 -6 -8 -19 -12 -31 -8 -12 3 -26 -1 -33 -10 -8 -10 -23 -13 -44 -10
-17 3 -37 0 -43 -6 -8 -8 -11 -8 -11 1 0 7 -7 12 -15 12 -8 0 -29 7 -48 16
-33 16 -33 16 -68 -18 -19 -19 -43 -41 -54 -49 -11 -8 -25 -23 -31 -34 -8 -13
-21 -19 -39 -18 -15 1 -40 -4 -55 -12 -25 -13 -29 -12 -44 4 -20 22 -21 51 -2
51 7 0 19 7 26 15 10 13 8 19 -12 38 -14 13 -25 29 -26 37 0 8 -3 22 -5 30 -2
8 -7 33 -12 55 -7 35 -54 95 -75 95 -16 0 -48 37 -55 65 -4 17 -8 57 -9 91 -2
33 -7 67 -12 75 -5 8 -10 38 -11 67 -3 75 -32 138 -46 100 -2 -7 -7 -10 -11
-6 -4 3 0 20 9 38 17 33 12 70 -10 70 -17 0 -32 -85 -17 -103 17 -21 30 -110
25 -174 -4 -52 -3 -64 11 -69 20 -8 21 -23 2 -38 -12 -9 -12 -18 1 -59 14 -41
14 -55 3 -103 -14 -56 -56 -114 -78 -106 -7 2 -12 -6 -12 -17 0 -12 -6 -21
-15 -21 -8 0 -15 -5 -15 -11 0 -6 -7 -9 -15 -5 -8 3 -21 -1 -29 -9 -8 -8 -20
-15 -27 -15 -7 0 -23 -12 -34 -27 -12 -14 -26 -23 -32 -20 -13 8 -7 71 7 75
17 6 11 19 -11 25 -15 4 -19 11 -15 25 4 11 -1 25 -12 35 -18 16 -20 16 -44
-5 -57 -50 -364 -346 -585 -563 -156 -154 -252 -241 -290 -262 -72 -40 -168
-135 -192 -187 -22 -49 -42 -68 -99 -89 -40 -16 -102 -23 -102 -12 0 13 28 52
55 78 145 140 788 771 857 841 48 48 90 97 93 107 4 11 18 25 33 33 15 8 82
67 148 132 67 66 164 160 217 211 97 94 127 137 127 182 -1 22 -2 24 -11 9 -5
-10 -15 -18 -20 -18 -9 0 -72 -43 -89 -60 -15 -15 -71 -50 -80 -50 -5 0 -10
-4 -10 -10 0 -5 -4 -10 -10 -10 -5 0 -24 -13 -42 -29 -18 -16 -60 -52 -93 -81
-33 -29 -73 -64 -90 -79 -16 -15 -57 -49 -90 -76 -57 -47 -304 -263 -315 -275
-3 -3 -45 -41 -95 -84 -49 -43 -120 -106 -156 -139 -36 -34 -103 -93 -149
-132 -45 -38 -150 -131 -234 -205 -83 -74 -164 -145 -179 -157 -25 -20 -183
-163 -256 -233 -72 -69 -87 -77 -187 -94 -180 -31 -317 -70 -461 -133 l-63
-27 0 -668 0 -668 4685 0 4685 0 0 2695 c0 2558 -1 2696 -17 2702 -20 7 -208
157 -218 173 -13 21 -35 10 -35 -17 0 -45 -11 -73 -28 -73 -13 0 -13 -3 2 -19
42 -47 39 -165 -4 -154 -11 3 -20 1 -20 -5 0 -21 12 -42 25 -42 27 0 34 -29
35 -136 3 -262 27 -388 108 -564 53 -115 72 -189 79 -301 7 -123 -4 -162 -36
-132 -10 10 -30 50 -43 88 -14 39 -55 146 -91 239 -37 93 -64 172 -62 176 3 5
19 11 35 15 45 10 46 25 3 25 -22 0 -46 6 -55 13 -22 16 -59 88 -51 99 3 6 -8
24 -25 41 -29 30 -92 153 -128 249 -9 24 -22 59 -29 78 -7 19 -21 38 -31 43
-11 5 -32 29 -49 55 -104 165 -147 191 -324 200 l-113 5 7 36 c18 96 19 92
-10 119 -16 14 -23 28 -17 30 7 2 8 12 0 33 -18 53 -84 71 -208 56 -46 -6 -59
-4 -77 12 -25 21 -30 40 -10 42 36 3 103 -4 125 -12 13 -5 53 -6 88 -3 l64 7
42 81 c29 57 40 92 39 118 -2 44 16 53 80 39 27 -6 48 -6 53 -1 11 11 12 140
1 191 -6 31 0 48 43 130 27 52 53 105 57 119 l7 25 -19 -25 c-11 -14 -36 -54
-54 -89 -19 -35 -45 -83 -59 -107 -14 -24 -36 -63 -48 -86 -139 -251 -170
-298 -202 -298 -28 0 -33 16 -15 49 8 17 29 72 46 123 17 51 39 104 48 118 9
14 27 55 40 93 26 76 24 84 -38 118 -20 11 -56 33 -81 49 -25 16 -63 39 -85
52 l-40 24 -23 -27 c-12 -15 -22 -30 -22 -34 0 -4 -24 -42 -53 -84 -29 -42
-58 -88 -66 -102 -7 -14 -33 -47 -57 -73 -24 -26 -44 -53 -44 -60 0 -16 23
-38 78 -78 l43 -31 -33 -34 c-32 -33 -111 -93 -122 -93 -3 0 -6 7 -6 15 0 17
-2 18 -96 15 -47 -1 -74 2 -79 10 -4 7 -8 49 -9 93 -1 51 -5 82 -13 84 -14 5
-24 -26 -32 -97 l-6 -55 -65 0 c-38 0 -84 7 -110 17 -42 17 -47 22 -70 84 -21
57 -36 77 -103 140 -74 68 -79 76 -93 136 -10 44 -13 86 -8 139 4 47 2 84 -4
95 -6 11 -44 29 -94 45 -102 32 -118 54 -118 164 0 49 -3 65 -10 55 -5 -8 -10
-25 -10 -37 0 -16 -6 -23 -20 -23 -22 0 -35 24 -45 81 -3 22 -21 54 -44 80
-21 24 -54 70 -74 101 -20 32 -54 69 -77 84 -22 15 -40 32 -40 39 0 7 -7 19
-16 26 -22 18 -12 121 21 204 20 53 40 112 51 153 6 20 29 9 32 -16 5 -33 22
-27 22 8 0 23 -8 35 -37 54 -34 24 -92 107 -93 134 0 6 8 12 18 12 9 0 30 12
45 25 27 24 27 26 12 54 -8 17 -15 39 -15 51 0 12 -5 18 -10 15 -6 -4 -7 -11
-4 -17 4 -5 -5 -3 -19 6 -22 15 -24 22 -20 61 3 35 0 49 -16 67 -18 18 -21 35
-21 100 0 51 -4 77 -10 73 -6 -4 -8 -11 -5 -16 4 -5 2 -9 -3 -9 -19 0 -24 52
-7 70 15 16 14 18 -10 24 -26 7 -33 20 -15 31 17 11 11 28 -9 22 -13 -3 -22 3
-30 19 -6 13 -15 24 -21 24 -5 0 -16 16 -24 35 -8 19 -22 38 -30 41 -8 3 -12
12 -9 20 4 11 9 12 19 3 11 -9 15 -7 20 5 4 12 -4 27 -25 48 -17 17 -31 36
-31 42 0 12 -88 56 -113 56 -12 1 -57 34 -57 43 0 3 10 7 22 9 21 3 21 6 25
258 3 145 8 256 14 258 5 2 9 10 9 18 0 11 -20 14 -105 13 l-105 -2 0 -46 c-1
-25 0 -139 0 -252 1 -227 2 -221 -63 -233 -76 -14 -74 -26 -86 512 l-1 22
-229 0 -228 0 -1 -412 c-2 -540 -4 -606 -22 -645 -8 -18 -19 -33 -24 -33 -4 0
-5 -7 -2 -16 4 -12 2 -15 -9 -10 -8 3 -15 0 -15 -7 0 -7 -8 0 -18 16 -9 15
-24 27 -33 27 -9 0 -19 7 -23 15 -3 8 -12 15 -19 15 -8 0 -21 7 -28 16 -8 9
-31 27 -51 40 -21 14 -37 30 -35 36 1 7 -7 14 -18 16 -11 2 -27 10 -36 18 -9
8 -18 12 -21 9 -3 -3 -13 4 -23 15 -10 11 -22 20 -26 20 -4 0 -20 11 -35 25
-26 24 -33 25 -83 19 -53 -7 -55 -6 -41 11 14 17 13 18 -12 13 -16 -3 -28 -2
-28 2 0 4 -10 11 -22 15 -36 11 -78 14 -78 4 0 -5 -7 -9 -15 -9 -8 0 -15 5
-15 10 0 6 -7 10 -15 10 -8 0 -15 9 -15 20 0 10 -9 24 -21 30 -25 14 -22 16
-38 -38 -7 -24 -15 -41 -18 -38 -3 3 -14 1 -23 -4 -13 -7 -24 -3 -45 16 -32
30 -57 28 -62 -4 -4 -28 -29 -56 -43 -47 -5 3 -10 -1 -10 -9 0 -8 -10 -24 -22
-35 l-21 -20 -22 45 -22 45 -19 -26 c-16 -21 -20 -22 -24 -9 -5 14 -11 12 -37
-12 -30 -29 -57 -87 -46 -98 4 -3 2 -6 -4 -6 -6 0 -14 7 -17 16 -3 8 -10 13
-15 10 -5 -3 -11 3 -14 14 -3 11 -12 20 -21 20 -10 0 -16 9 -16 23 0 13 -6 31
-13 42 -13 17 -15 17 -35 -3 -12 -12 -20 -22 -18 -22 3 0 0 -13 -5 -28 -9 -26
-14 -29 -47 -26 -20 2 -42 3 -49 3 -6 1 -9 9 -6 19 3 15 -1 18 -19 17 -19 -2
-23 -8 -23 -33 0 -20 -5 -32 -13 -32 -7 0 -11 -4 -7 -9 3 -5 -8 -16 -24 -24
-26 -13 -32 -13 -42 -1 -15 18 -29 18 -29 -1 0 -8 -6 -15 -14 -15 -18 0 -30
-31 -15 -41 9 -5 9 -20 -1 -60 -18 -84 -19 -85 -35 -63 -14 18 -14 18 -15 -8
0 -15 4 -29 10 -33 16 -10 -1 -35 -24 -35 -12 0 -27 -5 -34 -12 -17 -17 -28 0
-15 22 10 15 9 19 -4 24 -10 4 -14 15 -11 36 3 17 1 30 -4 30 -4 0 -8 -4 -8
-8 0 -4 -12 -8 -27 -7 -24 0 -29 -5 -33 -34 -6 -43 -27 -51 -40 -15 -8 20 -14
24 -22 16 -6 -6 -18 -8 -27 -5 -11 4 -10 1 4 -10 11 -8 17 -19 13 -23 -5 -4
-16 0 -26 9 -26 24 -35 21 -28 -8 5 -21 3 -25 -17 -25 -13 0 -28 -5 -34 -11
-15 -15 -47 2 -100 54 l-43 41 11 -35 c7 -18 15 -41 19 -49 4 -9 -1 -26 -13
-41 -21 -29 -16 -52 9 -42 10 4 17 -2 21 -16 3 -11 9 -18 14 -15 18 11 20 -25
5 -59 -16 -32 -16 -35 10 -82 l27 -48 -26 7 c-14 3 -37 17 -51 31 -14 14 -30
25 -36 25 -17 0 -11 -19 10 -32 11 -7 20 -16 20 -20 0 -11 -54 -6 -61 5 -15
21 -27 -5 -22 -44 6 -39 5 -41 -15 -30 -21 11 -52 6 -52 -9 0 -15 -41 -19 -47
-4 -3 7 -24 19 -47 25 -22 6 -62 21 -88 34 -27 14 -48 23 -48 21 0 -2 9 -13
20 -26 11 -12 17 -27 14 -31 -3 -5 4 -9 15 -9 12 0 21 -6 21 -14 0 -8 9 -18
20 -21 33 -10 23 -25 -17 -25 -44 0 -34 -12 23 -28 41 -12 64 -44 42 -58 -5
-3 -7 -15 -5 -26 6 -22 -23 -53 -51 -53 -12 0 -17 -9 -19 -32 -1 -18 3 -36 8
-39 6 -3 2 -12 -8 -19 -15 -11 -22 -10 -43 4 -51 34 -77 42 -125 39 l-49 -3
47 -44 c48 -46 52 -66 12 -59 -18 4 -22 1 -18 -11 4 -9 10 -21 15 -27 5 -8 3
-18 -7 -27 -17 -17 -20 -31 -5 -22 15 9 24 -23 11 -39 -8 -10 -7 -21 5 -45 8
-17 19 -31 23 -31 15 0 9 -39 -7 -43 -11 -3 -9 -5 8 -7 l25 -2 -25 -7 c-15 -4
-25 -14 -25 -26 0 -10 -6 -20 -13 -23 -6 -2 -12 -8 -12 -13 0 -6 5 -7 10 -4 6
3 10 2 10 -3 0 -5 -16 -20 -35 -33 -35 -24 -49 -57 -19 -45 9 3 20 6 25 6 5 0
9 7 9 16 0 8 5 12 10 9 21 -13 10 -35 -17 -35 -21 0 -24 -3 -15 -12 7 -7 12
-20 12 -30 0 -14 -6 -18 -26 -16 -22 2 -27 -1 -29 -21 -1 -14 -7 -27 -12 -28
-6 -2 -9 -13 -6 -23 4 -14 -3 -25 -26 -37 -31 -18 -37 -39 -21 -78 5 -13 3
-26 -8 -37 -11 -14 -12 -21 -3 -32 19 -23 -14 -124 -45 -138 -21 -10 -23 -13
-9 -20 14 -8 13 -11 -5 -26 -11 -9 -27 -35 -34 -57 -22 -64 -34 -53 -35 32 0
43 -3 125 -6 183 -3 58 -10 229 -15 380 -14 368 -28 720 -40 975 -5 116 -13
326 -16 469 -7 234 -6 259 9 268 15 8 15 12 3 31 -8 12 -17 39 -20 59 -9 50
-10 458 -2 485 4 12 19 26 34 32 15 5 20 10 11 10 -9 1 -22 8 -29 16 -10 12
-37 15 -128 15 l-115 0 6 -77z m2417 -752 c0 -5 -7 -11 -15 -15 -9 -3 -15 0
-15 9 0 8 7 15 15 15 8 0 15 -4 15 -9z m-503 -103 c-3 -8 -6 -5 -6 6 -1 11 2
17 5 13 3 -3 4 -12 1 -19z m413 -128 c0 -5 -4 -10 -9 -10 -6 0 -13 5 -16 10
-3 6 1 10 9 10 9 0 16 -4 16 -10z m-583 -52 c-3 -8 -6 -5 -6 6 -1 11 2 17 5
13 3 -3 4 -12 1 -19z m-307 -103 c0 -8 -7 -15 -15 -15 -16 0 -20 12 -8 23 11
12 23 8 23 -8z m2116 -112 c-3 -7 0 -13 7 -13 14 0 47 -60 47 -85 0 -18 -31
-20 -52 -2 -8 6 -26 31 -39 55 -19 36 -21 45 -9 52 20 13 51 8 46 -7z m-1788
-137 c65 -22 67 -35 5 -29 -78 7 -126 32 -90 46 14 6 13 6 85 -17z m-85 -43
c-7 -2 -21 -2 -30 0 -10 3 -4 5 12 5 17 0 24 -2 18 -5z m-903 -1203 c0 -5 -8
-10 -17 -10 -15 0 -16 2 -3 10 19 12 20 12 20 0z m4084 -142 c21 -29 12 -39
-24 -26 -33 11 -36 18 -18 36 17 17 25 15 42 -10z m64 -120 c-3 -7 -15 -14
-29 -16 -23 -2 -23 -2 -5 13 24 18 39 20 34 3z m-558 -424 c0 -8 -4 -14 -10
-14 -5 0 -10 9 -10 21 0 11 5 17 10 14 6 -3 10 -13 10 -21z m647 -150 c-3 -3
-12 -4 -19 -1 -8 3 -5 6 6 6 11 1 17 -2 13 -5z m-4930 -88 c5 -4 5 -278 0
-283 -11 -10 -74 -20 -142 -22 -75 -2 -104 10 -109 44 -2 11 -14 23 -27 26
-13 4 -20 7 -15 8 4 1 -8 18 -28 38 -20 21 -36 44 -36 52 0 7 -6 19 -13 25 -7
6 -11 10 -8 9 2 -1 24 14 50 33 36 28 52 34 75 30 22 -5 37 0 63 20 18 14 37
23 42 19 5 -3 12 -1 15 4 5 7 123 4 133 -3z m4703 -16 c0 -5 -2 -10 -4 -10 -3
0 -8 5 -11 10 -3 6 -1 10 4 10 6 0 11 -4 11 -10z m-491 -2504 c-2 -2 -14 -7
-26 -10 -18 -6 -22 -4 -17 8 6 17 37 26 43 13 1 -4 1 -10 0 -11z m916 -176
c-3 -5 -10 -10 -16 -10 -5 0 -9 5 -9 10 0 6 7 10 16 10 8 0 12 -4 9 -10z m573
-88 c42 -27 24 -38 -58 -33 -41 2 -90 20 -90 32 0 5 10 11 23 13 12 3 31 7 42
9 25 6 54 -2 83 -21z m-2273 -392 c3 -5 0 -10 -7 -10 -7 0 -24 -3 -38 -6 l-25
-5 25 15 c30 18 37 19 45 6z m-2257 -172 c32 -32 -13 -52 -60 -27 -21 11 -21
12 -3 25 23 17 47 18 63 2z m1616 -313 c-4 -8 -8 -15 -10 -15 -2 0 -4 7 -4 15
0 8 4 15 10 15 5 0 7 -7 4 -15z m302 -1399 c26 -19 14 -28 -46 -32 -44 -3 -50
-1 -50 15 0 32 61 42 96 17z"/>
<path d="M1880 5514 c0 -8 5 -12 10 -9 6 3 10 10 10 16 0 5 -4 9 -10 9 -5 0
-10 -7 -10 -16z"/>
<path d="M4723 9248 c-1 -13 -7 -24 -13 -26 -5 -2 -10 -13 -10 -25 0 -16 3
-18 9 -9 12 20 22 -11 14 -48 -4 -25 -2 -30 13 -30 19 -1 19 -1 0 -15 -13 -10
-17 -21 -12 -39 4 -15 2 -26 -4 -26 -6 0 -8 -18 -5 -47 6 -56 6 -169 0 -198
-3 -11 1 -47 8 -80 11 -54 15 -60 36 -57 17 1 22 -2 18 -12 -3 -8 1 -20 9 -26
12 -10 14 -8 15 16 1 16 2 42 3 57 1 17 -2 26 -9 23 -16 -6 -20 101 -4 120 6
7 9 20 6 29 -4 8 -1 17 5 21 7 4 5 10 -6 16 -18 10 -22 48 -5 48 8 0 8 5 -1
15 -10 12 -10 18 -1 29 8 10 9 16 1 21 -5 3 -10 1 -10 -6 0 -7 -3 -9 -6 -6 -4
4 -1 13 5 21 8 9 10 24 5 38 -4 13 -7 31 -5 41 1 9 -2 17 -8 17 -7 0 -7 8 -1
24 5 14 5 37 1 53 -4 15 -5 37 0 48 12 32 11 35 -19 35 -22 0 -28 -5 -29 -22z"/>
<path d="M4934 9243 c3 -16 8 -136 11 -268 14 -511 11 -485 41 -485 8 0 28
-14 45 -31 25 -26 33 -29 41 -18 7 11 11 11 15 1 8 -20 23 -3 23 28 0 17 7 33
16 38 15 8 16 20 6 103 -6 52 -9 146 -7 209 5 138 7 267 6 373 l-1 77 -101 0
-101 0 6 -27z"/>
<path d="M478 9203 c-30 -5 -34 -13 -17 -30 16 -16 4 -43 -19 -43 -11 0 -25
-6 -31 -14 -10 -12 -6 -17 21 -30 18 -9 54 -36 80 -61 45 -44 46 -47 41 -93
-4 -41 11 -218 35 -412 l7 -55 5 55 c4 45 8 54 23 52 9 -2 17 3 17 10 0 9 3 9
11 1 6 -6 28 -9 50 -6 35 5 41 3 46 -16 7 -29 56 -26 61 4 2 11 15 29 29 39
26 19 26 19 41 0 10 -13 16 -15 19 -7 8 21 71 46 98 39 15 -4 25 -2 25 4 0 6
10 8 24 4 43 -10 47 4 16 54 -38 63 -40 74 -10 83 22 6 23 7 4 8 -20 1 -116
98 -138 140 -16 30 -136 139 -199 181 -115 76 -183 102 -239 93z m142 -578 c0
-14 -4 -25 -10 -25 -5 0 -10 11 -10 25 0 14 5 25 10 25 6 0 10 -11 10 -25z"/>
<path d="M1685 8741 c-3 -5 -1 -12 5 -16 5 -3 10 1 10 9 0 18 -6 21 -15 7z"/>
<path d="M1750 8670 c0 -5 5 -10 10 -10 6 0 10 5 10 10 0 6 -4 10 -10 10 -5 0
-10 -4 -10 -10z"/>
<path d="M1160 8620 c0 -5 4 -10 9 -10 6 0 13 5 16 10 3 6 -1 10 -9 10 -9 0
-16 -4 -16 -10z"/>
<path d="M4735 8620 c3 -5 8 -10 11 -10 2 0 4 5 4 10 0 6 -5 10 -11 10 -5 0
-7 -4 -4 -10z"/>
<path d="M1474 8596 c23 -18 36 -20 36 -6 0 6 -4 10 -9 10 -5 0 -18 3 -28 6
-16 5 -16 4 1 -10z"/>
<path d="M830 8565 c0 -8 5 -15 10 -15 6 0 10 7 10 15 0 8 -4 15 -10 15 -5 0
-10 -7 -10 -15z"/>
<path d="M1511 8554 c0 -11 3 -14 6 -6 3 7 2 16 -1 19 -3 4 -6 -2 -5 -13z"/>
<path d="M1379 8545 c-9 -8 5 -61 14 -57 4 1 12 2 19 2 7 0 5 5 -4 13 -9 6
-18 20 -20 30 -1 11 -6 16 -9 12z"/>
<path d="M705 8520 c3 -5 8 -10 11 -10 2 0 4 5 4 10 0 6 -5 10 -11 10 -5 0 -7
-4 -4 -10z"/>
<path d="M1850 8484 c0 -11 5 -14 16 -10 9 3 20 6 25 6 6 0 7 5 4 10 -10 16
-45 12 -45 -6z"/>
<path d="M980 8475 c0 -8 5 -15 10 -15 6 0 10 7 10 15 0 8 -4 15 -10 15 -5 0
-10 -7 -10 -15z"/>
<path d="M6407 8462 c3 -12 9 -25 14 -28 14 -8 11 10 -6 32 -13 18 -14 18 -8
-4z"/>
<path d="M1440 8466 c0 -14 21 -58 26 -54 8 8 -7 58 -17 58 -5 0 -9 -2 -9 -4z"/>
<path d="M1565 8460 c3 -5 12 -7 20 -3 21 7 19 13 -6 13 -11 0 -18 -4 -14 -10z"/>
<path d="M4040 8459 c0 -5 5 -7 10 -4 6 3 10 8 10 11 0 2 -4 4 -10 4 -5 0 -10
-5 -10 -11z"/>
<path d="M3995 8440 c3 -5 8 -10 11 -10 2 0 4 5 4 10 0 6 -5 10 -11 10 -5 0
-7 -4 -4 -10z"/>
<path d="M1160 8420 c-6 -12 -9 -28 -6 -35 4 -12 10 -11 36 2 17 8 30 16 28
17 -2 1 -13 9 -25 19 -21 18 -22 18 -33 -3z"/>
<path d="M1460 8381 c0 -24 22 -28 39 -7 8 10 9 16 1 21 -5 3 -10 1 -10 -6 0
-8 -4 -8 -15 1 -13 10 -15 9 -15 -9z"/>
<path d="M5045 8390 c3 -5 8 -10 11 -10 2 0 4 5 4 10 0 6 -5 10 -11 10 -5 0
-7 -4 -4 -10z"/>
<path d="M1280 8367 c-11 -11 -17 -23 -14 -26 4 -3 9 0 11 7 3 6 9 12 15 12 6
0 7 -7 4 -16 -5 -12 -2 -15 10 -10 8 3 27 6 41 6 25 0 25 1 9 19 -26 29 -54
32 -76 8z"/>
<path d="M1080 8355 c0 -8 -4 -15 -9 -15 -5 0 -12 -7 -15 -15 -4 -11 3 -19 20
-25 16 -7 23 -14 18 -22 -5 -9 -2 -9 9 1 15 12 17 11 17 -8 0 -11 2 -21 4 -21
7 0 50 24 75 42 l23 16 -25 28 c-26 27 -26 27 -67 11 -41 -16 -42 -16 -37 3 3
11 1 20 -4 20 -5 0 -9 -7 -9 -15z"/>
<path d="M1640 8349 c0 -6 9 -7 21 -4 15 5 19 4 14 -5 -4 -7 -17 -9 -31 -6
-14 4 -24 2 -24 -4 0 -5 6 -10 13 -10 6 -1 -3 -9 -21 -18 -21 -11 -29 -21 -23
-27 6 -7 3 -19 -10 -35 -20 -24 -21 -24 -16 -2 3 12 1 22 -4 22 -5 0 -9 6 -9
14 0 10 -11 14 -35 13 -25 -1 -34 -5 -31 -14 3 -7 -4 -19 -14 -26 -18 -12 -18
-15 -4 -35 21 -30 64 -30 65 1 1 21 1 21 9 -3 4 -14 8 -19 9 -12 1 6 9 12 19
12 10 0 23 5 28 10 19 19 39 -16 26 -45 -12 -26 -88 -56 -100 -39 -11 15 -54
10 -65 -8 -24 -36 28 -88 59 -59 5 5 27 12 49 16 31 5 37 4 25 -5 -15 -12 -6
-12 180 6 55 6 66 10 66 25 0 11 -4 19 -9 19 -5 0 -4 7 3 15 10 12 10 15 -1
16 -10 0 -10 2 2 7 11 5 13 14 8 32 -5 17 -7 19 -8 7 -1 -19 -22 -20 -23 -2 0
6 -6 18 -13 29 -8 10 -11 25 -8 32 3 9 -1 14 -12 14 -12 0 -15 6 -11 23 3 12
3 16 0 10 -6 -13 -34 -18 -34 -7 0 3 7 12 15 21 8 8 13 18 10 23 -7 12 -115
11 -115 -1z"/>
<path d="M812 8254 c-7 -7 -12 -19 -12 -27 0 -7 -5 -18 -12 -25 -13 -13 -20
-86 -12 -114 10 -33 42 -21 53 20 5 20 15 56 21 80 17 65 -4 102 -38 66z"/>
<path d="M1003 8263 c4 -3 2 -12 -4 -20 -8 -9 -8 -13 -1 -13 6 0 12 -12 14
-27 2 -16 8 -27 16 -25 7 1 15 -5 18 -13 7 -18 37 -19 64 -3 10 7 23 8 27 4 4
-5 2 -11 -4 -13 -22 -8 -14 -21 17 -28 16 -4 32 -11 35 -16 4 -5 24 -9 46 -9
30 0 39 -4 40 -17 0 -10 3 -13 5 -6 3 7 11 10 18 7 14 -5 9 -74 -5 -74 -5 0
-9 5 -9 10 0 21 -18 9 -22 -15 -6 -29 9 -45 18 -20 6 14 9 13 22 -7 l16 -22
13 30 c7 18 12 22 13 12 0 -19 19 -25 21 -8 3 20 4 25 12 38 5 6 17 12 28 12
10 0 19 5 19 10 0 6 -11 10 -24 10 -24 0 -46 32 -27 38 19 6 13 52 -6 53 -10
1 -25 3 -33 3 -54 5 -120 30 -135 52 -17 26 -53 32 -73 12 -9 -9 -12 -9 -12 0
0 12 -35 52 -45 52 -3 0 -5 -7 -5 -15 0 -8 -7 -15 -15 -15 -9 0 -18 7 -21 15
-4 8 -11 15 -17 15 -6 0 -7 -3 -4 -7z"/>
<path d="M1860 8245 c0 -27 -1 -27 51 -30 20 -1 43 -5 52 -8 10 -4 17 -2 17 3
0 6 -5 10 -11 10 -5 0 -27 11 -47 25 -20 14 -42 25 -49 25 -7 0 -13 -11 -13
-25z"/>
<path d="M6520 8185 c0 -9 5 -15 11 -13 6 2 11 8 11 13 0 5 -5 11 -11 13 -6 2
-11 -4 -11 -13z"/>
<path d="M980 8115 c0 -12 -6 -27 -12 -33 -10 -10 -8 -14 10 -18 28 -8 29 -30
2 -37 -18 -5 -19 -8 -8 -33 10 -22 10 -28 0 -32 -6 -2 -12 -12 -12 -23 0 -17
-6 -19 -55 -16 -30 2 -55 0 -55 -4 0 -13 -32 -20 -45 -9 -9 7 -16 6 -25 -5
-17 -20 -30 -19 -31 3 0 13 -3 12 -11 -6 -8 -16 -8 -29 0 -45 6 -12 13 -34 16
-49 l6 -27 51 23 c27 13 50 28 50 32 1 5 4 14 8 19 14 18 21 46 11 40 -6 -3
-10 -2 -10 3 0 11 135 8 161 -2 9 -4 23 -1 30 6 8 7 23 13 34 13 11 0 21 8 23
18 2 11 -3 17 -16 17 -11 0 -27 3 -35 6 -10 3 -17 -2 -20 -13 -3 -10 -5 -1 -6
20 -1 26 -6 37 -16 37 -8 0 -15 7 -15 15 0 9 9 15 25 15 14 0 25 5 25 10 0 6
8 10 18 10 10 0 26 14 35 30 18 30 12 41 -11 18 -17 -17 -27 -1 -11 18 13 15
11 17 -19 12 -17 -2 -32 -1 -32 3 0 5 -13 7 -30 6 -23 -2 -30 -7 -30 -22z"/>
<path d="M1200 7980 c0 -6 -11 -8 -25 -4 -15 4 -25 2 -25 -5 0 -6 5 -11 11
-11 6 0 9 -7 5 -15 -7 -20 4 -18 32 4 23 20 29 41 12 41 -5 0 -10 -5 -10 -10z"/>
<path d="M3160 7970 c0 -5 5 -10 10 -10 6 0 10 5 10 10 0 6 -4 10 -10 10 -5 0
-10 -4 -10 -10z"/>
<path d="M3050 7950 c20 -13 33 -13 25 0 -3 6 -14 10 -23 10 -15 0 -15 -2 -2
-10z"/>
<path d="M3132 7898 c-16 -16 -15 -38 1 -38 14 0 39 35 30 44 -9 9 -18 7 -31
-6z"/>
<path d="M1360 7850 c0 -5 5 -10 11 -10 5 0 8 -4 4 -9 -7 -12 12 -24 25 -16 5
3 2 14 -8 25 -18 22 -32 26 -32 10z"/>
<path d="M6680 7842 c0 -5 11 -12 25 -15 16 -3 24 0 22 7 -4 14 -47 21 -47 8z"/>
<path d="M1275 7830 c-4 -6 9 -17 29 -25 46 -19 46 -19 33 10 -12 25 -50 35
-62 15z"/>
<path d="M1530 7829 c0 -5 5 -7 10 -4 6 3 10 8 10 11 0 2 -4 4 -10 4 -5 0 -10
-5 -10 -11z"/>
<path d="M6707 7793 c-10 -19 -18 -67 -9 -58 10 11 25 65 18 65 -3 0 -7 -3 -9
-7z"/>
<path d="M1470 7773 c-14 -3 -30 -9 -36 -14 -6 -5 -19 -7 -28 -3 -12 5 -16 0
-16 -16 0 -19 3 -20 15 -10 16 14 35 6 35 -16 0 -19 -30 -18 -60 3 -14 10 -33
16 -42 15 -9 -2 -19 6 -23 18 l-7 22 -19 -21 c-15 -16 -17 -25 -9 -40 16 -31
12 -40 -22 -49 -33 -8 -53 -42 -25 -42 8 0 27 -6 42 -14 23 -12 32 -12 61 0
18 8 44 14 56 14 13 0 43 12 68 25 25 14 53 28 63 31 9 4 17 12 17 19 0 8 3
20 6 28 5 15 -29 58 -43 56 -5 -1 -19 -4 -33 -6z"/>
<path d="M2970 7760 c0 -5 5 -10 10 -10 6 0 10 5 10 10 0 6 -4 10 -10 10 -5 0
-10 -4 -10 -10z"/>
<path d="M905 7741 c-3 -5 -1 -12 5 -16 14 -9 52 4 45 16 -8 12 -42 12 -50 0z"/>
<path d="M2960 7720 c0 -5 5 -10 10 -10 6 0 10 5 10 10 0 6 -4 10 -10 10 -5 0
-10 -4 -10 -10z"/>
<path d="M1060 7700 c0 -5 6 -10 14 -10 8 0 18 5 21 10 3 6 -3 10 -14 10 -12
0 -21 -4 -21 -10z"/>
<path d="M2976 7691 c-3 -5 1 -11 9 -15 9 -3 15 0 15 9 0 16 -16 20 -24 6z"/>
<path d="M890 7681 c0 -4 -11 -6 -24 -4 -26 5 -116 -30 -116 -45 0 -6 16 -10
35 -9 19 1 30 4 25 7 -6 4 -3 13 7 22 25 22 63 7 63 -25 0 -14 7 -30 16 -37
12 -11 15 -11 12 0 -2 7 8 16 21 19 14 4 27 13 29 20 3 10 -1 12 -16 9 -12 -3
-29 0 -39 8 -17 13 -16 14 19 18 25 2 19 26 -6 26 -14 0 -26 -4 -26 -9z"/>
<path d="M587 7649 c-9 -32 8 -41 36 -19 35 28 34 37 -2 36 -19 -1 -32 -7 -34
-17z"/>
<path d="M1010 7585 c12 -15 30 -12 30 6 0 5 -10 9 -21 9 -18 0 -19 -2 -9 -15z"/>
<path d="M1447 7579 c-53 -28 -87 -59 -87 -81 0 -10 5 -18 10 -18 6 0 10 -5
10 -11 0 -5 -4 -8 -8 -5 -5 3 -15 -6 -22 -19 -7 -14 -17 -25 -22 -25 -5 0 -6
6 -2 13 4 6 -2 3 -14 -7 -12 -11 -23 -17 -25 -15 -18 25 -26 63 -16 75 9 11 5
11 -22 4 -36 -11 -51 -6 -43 14 7 17 -34 28 -44 12 -4 -7 -21 -18 -38 -23 -29
-10 -34 -9 -60 23 -22 25 -40 35 -72 39 -23 2 -42 1 -42 -4 0 -25 13 -38 31
-34 11 3 19 2 17 -3 -2 -5 10 -26 26 -47 27 -35 33 -38 63 -32 26 5 33 3 33
-10 0 -8 4 -15 10 -15 5 0 7 -7 4 -15 -4 -8 -18 -15 -33 -15 -14 -1 -39 -1
-54 -1 -16 -1 -38 7 -50 17 -24 21 -54 39 -105 64 -30 15 -40 15 -84 4 -28 -8
-55 -11 -61 -7 -5 3 -8 0 -5 -8 2 -7 36 -29 74 -48 94 -49 100 -58 60 -94 -29
-28 -30 -30 -11 -38 11 -4 32 -8 48 -8 22 -1 27 -6 27 -25 0 -13 -6 -26 -14
-29 -20 -8 -8 -57 14 -57 10 0 21 -9 25 -19 4 -13 22 -23 56 -31 28 -7 53 -10
56 -6 3 3 14 1 24 -5 13 -6 19 -6 19 1 0 7 6 7 18 1 9 -6 29 -12 45 -16 37 -8
34 -25 -5 -27 -63 -3 -67 -4 -74 -11 -4 -4 -29 -7 -55 -7 -29 0 -62 -8 -88
-22 -40 -21 -41 -21 -80 -3 -22 10 -38 22 -35 26 9 15 -13 10 -26 -6 -19 -23
-49 -18 -60 10 -5 14 -14 25 -20 25 -5 0 -10 7 -10 15 0 21 -39 40 -53 26 -8
-8 -8 -11 1 -11 18 0 10 -44 -10 -52 -11 -4 -15 -14 -11 -27 3 -12 1 -21 -5
-21 -6 0 -14 -9 -17 -20 -4 -11 -10 -18 -15 -15 -5 3 -10 0 -12 -7 -2 -6 -9
14 -14 45 -6 32 -7 57 -2 57 4 0 8 25 8 55 0 47 2 53 17 48 11 -4 14 -3 9 5
-4 7 -1 15 8 18 9 3 16 12 16 18 0 7 16 17 35 23 28 9 35 8 35 -2 0 -8 -6 -15
-14 -17 -12 -2 -10 -8 5 -27 l20 -25 -2 25 c-4 40 0 61 11 54 6 -4 10 6 10 23
0 17 6 32 15 36 8 3 15 13 15 22 0 13 -3 14 -15 4 -11 -9 -18 -8 -36 9 -14 13
-36 21 -57 21 -19 0 -46 7 -62 16 -15 10 -35 14 -45 10 -15 -6 -17 -15 -11
-73 4 -37 9 -175 12 -307 3 -149 9 -245 16 -251 7 -7 12 -6 15 3 3 6 10 12 17
12 12 0 13 -152 2 -332 -2 -38 1 -58 8 -59 34 -3 80 5 156 28 80 24 139 34
285 49 33 3 103 15 155 26 52 11 131 25 175 30 120 14 130 18 129 53 -4 61 -4
72 -4 164 -1 99 -6 113 -49 134 -17 8 -27 22 -29 40 -3 27 -1 29 30 27 48 -3
62 -1 54 7 -4 4 -29 8 -55 9 -55 2 -71 9 -71 30 0 13 22 26 90 51 22 9 24 14
21 63 -2 32 -10 65 -21 80 -9 14 -21 36 -25 50 -4 14 -17 42 -28 63 l-21 37
37 38 c24 25 37 47 37 65 0 17 5 27 15 27 14 0 19 18 29 108 4 39 2 44 -21 53
-13 5 -25 9 -26 9 -1 -1 -19 -10 -40 -21z m-217 -113 c0 -3 -4 -8 -10 -11 -5
-3 -10 -1 -10 4 0 6 5 11 10 11 6 0 10 -2 10 -4z m-466 -483 c-10 -44 -22 -49
-21 -9 1 23 6 36 14 36 9 0 11 -8 7 -27z m123 -128 c1 -14 0 -15 -3 -3 -3 9
-15 19 -27 22 -18 4 -18 4 3 3 17 -1 25 -8 27 -22z m88 15 c3 -5 -1 -10 -9
-10 -8 0 -18 5 -21 10 -3 6 1 10 9 10 8 0 18 -4 21 -10z"/>
<path d="M865 7569 c-4 -6 -5 -11 -4 -12 2 -1 14 -7 25 -14 29 -16 37 -6 16
18 -19 22 -28 24 -37 8z"/>
<path d="M572 7533 c2 -21 8 -38 13 -38 6 0 11 17 13 38 3 29 0 37 -13 37 -13
0 -16 -8 -13 -37z"/>
<path d="M615 7540 c3 -5 10 -10 16 -10 5 0 9 5 9 10 0 6 -7 10 -16 10 -8 0
-12 -4 -9 -10z"/>
<path d="M660 7136 c0 -2 7 -6 15 -10 8 -3 15 -1 15 4 0 6 -7 10 -15 10 -8 0
-15 -2 -15 -4z"/>
<path d="M770 7090 c0 -5 5 -10 10 -10 6 0 10 5 10 10 0 6 -4 10 -10 10 -5 0
-10 -4 -10 -10z"/>
<path d="M740 7079 c0 -5 5 -7 10 -4 6 3 10 8 10 11 0 2 -4 4 -10 4 -5 0 -10
-5 -10 -11z"/>
<path d="M6894 7066 c-3 -8 -1 -23 5 -33 9 -15 10 -13 11 15 0 34 -7 42 -16
18z"/>
<path d="M2575 7010 c-8 -13 9 -20 24 -11 10 6 9 10 -3 14 -8 3 -18 2 -21 -3z"/>
<path d="M2612 6941 c4 -13 18 -16 19 -4 0 4 -5 9 -11 12 -7 2 -11 -2 -8 -8z"/>
<path d="M1595 6920 c-4 -6 11 -10 36 -10 48 0 49 4 2 13 -18 4 -35 2 -38 -3z"/>
<path d="M1857 6913 c18 -2 50 -2 70 0 21 2 7 4 -32 4 -38 0 -55 -2 -38 -4z"/>
<path d="M2578 6843 c-2 -5 -1 -26 2 -47 4 -35 6 -37 19 -23 10 13 10 17 1 17
-8 0 -11 10 -8 30 4 27 -5 42 -14 23z"/>
<path d="M8198 6796 c-12 -6 -24 -20 -26 -30 -3 -16 0 -18 22 -12 15 4 41 0
62 -9 20 -8 50 -15 68 -15 l31 0 -31 31 c-36 36 -92 52 -126 35z"/>
<path d="M7087 6753 c-4 -21 -2 -42 3 -47 7 -7 10 7 10 37 0 57 -5 60 -13 10z"/>
<path d="M8379 6711 c12 -7 12 -13 3 -24 -10 -11 -5 -17 28 -30 28 -11 42 -12
47 -5 8 14 -51 68 -75 68 -14 0 -14 -2 -3 -9z"/>
<path d="M591 6684 c0 -11 3 -14 6 -6 3 7 2 16 -1 19 -3 4 -6 -2 -5 -13z"/>
<path d="M7590 6558 c-8 -13 -13 -27 -12 -32 2 -4 3 -23 4 -42 1 -18 5 -31 10
-28 5 3 8 18 7 32 -1 15 1 35 5 44 4 9 6 24 4 33 -2 12 -6 11 -18 -7z"/>
<path d="M7760 6505 c0 -8 2 -15 4 -15 2 0 6 7 10 15 3 8 1 15 -4 15 -6 0 -10
-7 -10 -15z"/>
<path d="M7580 6426 c0 -9 5 -16 10 -16 6 0 10 4 10 9 0 6 -4 13 -10 16 -5 3
-10 -1 -10 -9z"/>
<path d="M7567 6283 c-4 -3 -7 -18 -7 -32 1 -25 1 -25 15 -7 23 30 15 63 -8
39z"/>
<path d="M1436 6217 c9 -5 31 -5 52 1 37 10 37 10 -15 9 -36 -1 -48 -4 -37
-10z"/>
<path d="M7746 6215 c-3 -8 -1 -15 4 -15 6 0 10 7 10 15 0 8 -2 15 -4 15 -2 0
-6 -7 -10 -15z"/>
<path d="M1458 6093 c-16 -8 -28 -21 -28 -29 0 -7 -6 -14 -12 -14 -9 0 -8 -4
2 -10 8 -5 10 -10 4 -10 -6 0 -24 -11 -40 -25 -15 -13 -46 -29 -69 -34 -22 -5
-80 -19 -130 -31 -49 -11 -128 -34 -175 -50 -79 -27 -485 -131 -589 -150 -125
-24 -325 -70 -370 -85 l-51 -17 0 -59 c0 -55 2 -60 19 -54 64 20 160 47 184
52 15 3 30 9 33 14 3 5 15 9 26 9 12 0 35 4 52 10 17 5 72 21 123 36 l91 27
-5 31 c-4 26 -1 34 21 45 30 16 53 4 58 -32 2 -12 10 -21 18 -20 8 0 103 27
210 58 107 31 236 67 285 81 231 63 483 138 507 150 21 11 27 21 25 42 -2 23
-7 29 -27 29 -33 0 -103 28 -108 42 -5 14 -20 13 -54 -6z"/>
<path d="M1668 6063 c7 -3 16 -2 19 1 4 3 -2 6 -13 5 -11 0 -14 -3 -6 -6z"/>
<path d="M1565 5892 c-48 -16 -64 -37 -28 -37 21 0 30 -25 13 -35 -8 -5 -10
-15 -5 -26 4 -11 10 -40 12 -66 4 -45 3 -48 -34 -71 -21 -13 -74 -38 -118 -55
-44 -17 -111 -44 -150 -60 -38 -15 -97 -34 -130 -41 -33 -7 -107 -30 -165 -51
-164 -59 -378 -129 -460 -150 -114 -29 -163 -44 -186 -57 -12 -7 -24 -10 -27
-6 -4 3 -44 -8 -89 -25 -46 -17 -101 -34 -123 -38 -52 -9 -75 -21 -75 -40 0
-11 5 -14 18 -9 51 21 157 45 173 40 14 -5 19 -16 19 -42 0 -29 3 -34 17 -28
10 4 100 35 200 70 101 35 188 67 193 70 6 4 8 15 5 26 -9 27 3 57 25 64 24 8
60 -11 60 -30 0 -8 6 -15 12 -15 11 0 75 23 143 51 11 4 31 9 44 11 14 2 26 9
29 15 5 18 -28 29 -38 12 -11 -17 -24 -5 -17 16 4 8 16 15 27 15 11 0 23 7 27
15 6 18 65 45 98 45 28 0 47 -22 39 -44 -8 -20 5 -20 42 -1 16 8 36 15 45 15
8 0 19 4 25 9 5 6 27 14 49 20 22 5 131 41 242 79 200 68 280 109 269 137 -6
16 25 37 79 55 60 19 60 25 2 22 -42 -3 -58 1 -80 18 -15 12 -25 25 -23 29 3
4 -6 19 -20 34 -13 14 -24 38 -24 52 0 22 -4 25 -32 24 -18 0 -55 -8 -83 -17z"/>
<path d="M1876 5873 c-11 -11 -6 -23 9 -23 8 0 15 4 15 9 0 13 -16 22 -24 14z"/>
<path d="M4925 5605 c-16 -8 -40 -14 -52 -15 -16 0 -23 -6 -23 -20 0 -20 -8
-24 -48 -20 -12 1 -41 -5 -65 -14 -23 -8 -54 -17 -69 -20 -20 -5 -30 -14 -34
-34 -4 -15 -15 -45 -26 -68 -19 -42 -19 -59 0 -107 7 -16 12 -39 12 -52 0 -14
12 -34 30 -48 17 -14 30 -30 30 -36 0 -5 6 -22 14 -38 18 -35 41 -89 56 -128
14 -37 75 -105 95 -105 8 0 15 -6 15 -13 0 -7 21 -31 48 -54 26 -23 62 -54 79
-70 18 -16 54 -34 80 -41 46 -10 100 -31 133 -51 17 -11 142 -40 199 -47 71
-9 261 -16 261 -9 0 3 -7 14 -16 22 -14 15 -14 17 0 25 9 5 34 10 56 11 22 1
40 4 40 7 0 14 -23 28 -37 23 -9 -4 -16 2 -20 15 -5 20 -51 38 -78 31 -6 -1
-22 3 -36 9 -15 6 -35 8 -46 6 -10 -3 -28 3 -41 14 l-22 19 26 12 c14 6 35 9
48 5 14 -3 27 1 36 11 23 28 81 45 166 50 62 3 83 1 87 -9 3 -7 22 -21 42 -30
25 -12 35 -22 31 -33 -4 -10 -2 -13 8 -10 7 3 18 1 24 -5 6 -6 12 -6 16 1 4 6
16 11 27 11 21 0 25 10 8 27 -16 16 -4 29 31 36 34 7 39 23 10 32 -11 3 -20
12 -20 19 0 20 30 41 52 38 10 -2 18 2 18 7 0 6 3 10 8 10 45 -7 65 22 33 50
-11 10 -21 23 -21 30 0 15 27 14 33 -1 4 -10 6 -10 6 0 1 6 10 12 22 12 18 0
20 4 15 30 -3 17 -9 44 -12 60 -3 17 -12 30 -20 30 -8 0 -28 16 -45 35 -17 19
-47 44 -67 57 -20 12 -55 39 -77 60 -22 21 -50 38 -62 38 -13 0 -35 14 -50 30
-14 17 -35 30 -45 30 -10 0 -27 9 -38 20 -11 11 -29 20 -41 20 -11 0 -17 4
-14 10 4 6 -6 7 -25 4 -17 -4 -30 -2 -30 4 0 15 -186 62 -248 62 -18 0 -40 4
-50 9 -53 29 -242 57 -327 49 -11 -1 -29 1 -40 4 -11 4 -33 0 -50 -7z m1093
-611 c38 -3 43 -5 37 -14 -9 -15 -62 -12 -68 4 -6 16 4 30 12 19 3 -5 12 -8
19 -9z m-388 -23 c0 -17 -51 -44 -62 -33 -9 9 19 28 60 41 1 1 2 -3 2 -8z
m-202 -90 c6 -1 12 -6 12 -12 0 -10 -103 -11 -143 -1 -48 12 35 20 131 13z"/>
<path d="M3975 5579 c-16 -5 -61 -9 -100 -8 -38 0 -83 0 -100 0 -16 -1 -64 -1
-105 -1 -53 0 -71 -3 -60 -10 12 -8 11 -10 -7 -10 -13 0 -42 -4 -65 -10 -78
-17 -203 -43 -223 -45 -55 -7 -82 -19 -91 -38 -5 -12 -17 -21 -26 -21 -10 1
-15 -2 -12 -7 3 -5 -2 -9 -10 -9 -9 0 -16 -5 -16 -11 0 -8 -5 -8 -15 1 -10 9
-15 9 -15 1 0 -6 -3 -10 -7 -10 -24 4 -41 -8 -114 -80 -60 -58 -83 -88 -89
-115 -7 -33 -5 -39 18 -54 31 -20 155 -22 190 -3 13 7 27 9 33 5 20 -12 -44
-53 -103 -65 -33 -7 -59 -18 -63 -27 -7 -18 4 -80 16 -87 16 -10 57 7 62 26 3
10 10 19 16 19 14 0 14 -27 0 -36 -8 -5 -4 -13 11 -24 l23 -18 -22 -12 c-13
-6 -35 -9 -49 -6 l-27 7 25 -21 c14 -11 31 -18 38 -15 7 2 21 -4 32 -15 11
-11 31 -20 45 -20 37 0 40 1 37 11 -1 5 5 12 13 15 8 4 15 12 15 19 0 23 30
38 81 41 47 3 50 2 44 -17 -5 -16 -3 -20 12 -19 34 4 44 0 41 -17 -2 -11 7
-19 28 -25 17 -4 39 -17 48 -27 18 -19 17 -20 -10 -26 -45 -10 -79 -32 -79
-52 0 -10 -8 -21 -17 -25 -27 -11 -22 -25 12 -37 17 -5 30 -17 30 -26 0 -30
49 -37 195 -30 126 6 150 10 240 42 55 20 109 42 120 49 11 8 27 14 37 14 25
0 118 95 118 121 0 17 -4 20 -24 15 -14 -3 -27 -2 -30 3 -7 11 17 21 51 21 16
0 27 7 30 20 3 13 14 20 28 20 19 0 27 10 40 48 10 26 24 61 31 79 8 17 14 34
14 39 0 4 6 15 13 23 27 32 46 105 42 161 -2 30 -4 57 -6 60 -1 3 -3 10 -4 15
0 6 -16 33 -33 61 -28 45 -40 54 -90 72 -31 11 -67 20 -80 20 -12 1 -29 8 -38
16 -8 9 -20 16 -26 16 -6 0 -19 6 -27 14 -11 9 -25 11 -46 5z m-265 -689 c0
-5 -5 -10 -11 -10 -5 0 -7 5 -4 10 3 6 8 10 11 10 2 0 4 -4 4 -10z"/>
<path d="M8880 5346 c0 -9 5 -16 10 -16 6 0 10 4 10 9 0 6 -4 13 -10 16 -5 3
-10 -1 -10 -9z"/>
<path d="M1945 5250 c-11 -4 -54 -20 -95 -35 -134 -48 -134 -48 -100 -120 10
-22 16 -44 13 -48 -3 -5 0 -20 7 -32 24 -45 0 -76 -88 -114 -42 -18 -93 -42
-112 -52 -32 -18 -88 -45 -236 -115 -28 -13 -59 -24 -68 -24 -17 0 -17 -9 1
-57 7 -17 -29 -32 -54 -22 -15 5 -21 14 -17 24 10 24 -11 18 -45 -14 -17 -16
-45 -36 -61 -43 -33 -14 -40 -31 -12 -27 9 2 31 -1 49 -5 23 -5 41 -3 60 8 15
8 51 25 78 37 28 12 82 36 120 54 39 19 101 45 138 59 38 14 94 39 125 55 32
16 101 50 155 76 53 26 108 61 122 76 13 16 28 29 34 29 5 0 19 17 32 38 12
20 33 49 46 63 19 21 22 30 14 50 -5 13 -15 52 -22 87 -12 57 -15 62 -39 61
-14 0 -34 -4 -45 -9z"/>
<path d="M9020 5053 c0 -22 17 -49 25 -41 8 8 -5 58 -16 58 -5 0 -9 -8 -9 -17z"/>
<path d="M2270 4940 c0 -5 4 -10 9 -10 9 0 9 0 11 -165 0 -89 3 -107 13 -94 7
9 18 14 25 12 6 -3 12 2 12 11 0 9 5 16 10 16 5 0 9 -3 9 -7 -1 -5 -1 -12 0
-18 3 -15 51 114 51 136 0 11 -26 44 -57 74 -54 52 -83 68 -83 45z"/>
<path d="M740 4910 c-8 -5 -25 -10 -37 -10 -20 0 -110 -37 -123 -50 -6 -6 -25
-11 -65 -18 -16 -3 -32 -8 -35 -11 -3 -4 -45 -21 -95 -39 -49 -18 -112 -42
-139 -53 -27 -10 -54 -19 -60 -19 -7 0 -30 -8 -52 -19 -21 -10 -60 -24 -87
-32 -33 -9 -47 -19 -47 -31 0 -25 12 -23 117 19 73 28 95 34 107 24 16 -13 28
-61 15 -61 -5 0 -9 -5 -9 -10 0 -7 6 -7 18 0 9 6 67 31 127 56 302 126 350
147 359 163 4 5 1 22 -6 36 -11 24 -10 29 12 46 26 19 26 26 0 9z"/>
<path d="M1970 4882 c-51 -25 -74 -42 -72 -52 2 -8 6 -26 8 -40 3 -14 9 -36
14 -50 6 -14 11 -43 13 -64 2 -37 -1 -42 -63 -92 -36 -30 -87 -65 -115 -79
-87 -45 -159 -86 -176 -101 -8 -8 -20 -14 -26 -14 -6 0 -22 -9 -37 -21 -21
-16 -30 -18 -41 -9 -10 9 -16 7 -23 -6 -21 -38 67 -75 109 -46 13 9 46 28 73
42 28 15 94 53 146 85 52 32 132 75 178 97 45 22 82 42 82 44 0 2 -6 14 -12
25 -12 18 -9 24 22 50 19 16 49 33 65 38 21 5 29 13 28 27 -7 67 -23 172 -28
187 -11 28 -62 20 -145 -21z"/>
<path d="M6985 4878 c-19 -11 -62 -58 -78 -84 -4 -8 -1 -26 7 -42 8 -16 24
-64 36 -108 33 -124 38 -140 39 -122 1 9 7 23 14 30 36 37 48 136 38 321 -1
19 -26 22 -56 5z"/>
<path d="M5890 4762 c0 -6 10 -12 23 -16 32 -8 39 -7 35 6 -5 14 -58 23 -58
10z"/>
<path d="M2145 4599 c-22 -12 -58 -34 -79 -50 -34 -25 -37 -29 -20 -35 10 -3
29 -10 42 -15 13 -5 31 -9 41 -9 10 0 31 -7 47 -15 16 -8 32 -11 37 -6 4 4 7
39 5 77 -3 80 -12 86 -73 53z"/>
<path d="M888 4528 c-9 -72 9 -94 59 -69 18 9 33 23 33 32 0 8 5 20 11 26 8 8
1 11 -24 11 -19 0 -44 3 -56 7 -14 4 -22 2 -23 -7z"/>
<path d="M20 4511 c0 -5 9 -7 20 -4 11 3 20 7 20 9 0 2 -9 4 -20 4 -11 0 -20
-4 -20 -9z"/>
<path d="M787 4490 c-14 -11 -30 -20 -35 -20 -5 0 -15 -7 -22 -15 -7 -8 -18
-15 -25 -15 -8 0 -56 -20 -108 -45 -53 -25 -102 -45 -110 -45 -8 0 -20 -7 -27
-15 -7 -8 -16 -13 -20 -10 -5 3 -15 -2 -24 -10 -8 -8 -28 -18 -45 -21 -16 -4
-39 -15 -50 -25 -11 -11 -24 -19 -29 -19 -17 0 -102 -52 -102 -62 0 -5 -8 -8
-17 -5 -10 2 -30 -3 -45 -10 -15 -7 -30 -13 -33 -13 -3 0 -15 0 -27 -1 -22 0
-22 -1 -3 -9 11 -5 16 -9 10 -10 -18 -4 -40 -7 -57 -8 -15 -2 -18 -13 -18 -78
0 -72 1 -75 21 -69 44 14 149 68 157 79 4 7 23 16 43 19 48 7 605 282 617 304
6 11 5 27 -4 48 -14 34 -5 55 24 55 7 0 10 5 7 10 -10 17 -51 11 -78 -10z
m-449 -282 c24 -24 14 -53 -23 -67 -19 -7 -35 -16 -35 -21 0 -10 -127 -33
-139 -25 -28 17 38 75 85 75 8 0 26 11 40 25 27 27 53 32 72 13z"/>
<path d="M6713 4442 c-78 -96 -90 -124 -69 -157 9 -14 25 -25 35 -25 10 0 24
-7 31 -15 6 -8 15 -14 18 -13 4 1 15 -2 26 -7 12 -5 21 -3 27 6 5 8 9 10 10 4
0 -5 4 1 8 15 9 32 2 142 -9 135 -5 -3 -12 20 -15 50 -4 30 -11 55 -15 55 -5
0 -25 -21 -47 -48z"/>
<path d="M2150 4320 c-36 -22 -135 -86 -220 -141 -85 -56 -240 -156 -345 -222
-288 -183 -338 -215 -365 -235 -14 -10 -41 -27 -60 -38 -19 -10 -44 -26 -55
-34 -11 -9 -63 -43 -115 -75 -52 -32 -138 -86 -190 -120 -52 -34 -135 -87
-185 -119 -137 -88 -145 -92 -222 -143 -104 -69 -290 -185 -345 -218 -48 -27
-48 -27 -48 -81 l0 -54 57 37 c32 20 83 54 113 75 30 21 60 38 67 38 7 0 17 9
23 20 6 11 15 20 21 20 11 0 86 50 111 72 7 7 31 22 53 33 22 11 42 22 45 25
13 14 108 77 133 87 15 7 27 17 27 23 0 5 6 10 14 10 8 0 27 11 43 24 16 14
56 39 89 57 32 18 91 53 129 79 39 26 106 69 150 95 44 27 104 67 135 89 30
23 71 50 90 60 28 15 177 113 373 246 12 8 46 33 74 55 28 22 86 65 130 95 43
30 86 62 97 72 10 9 62 40 115 68 53 28 103 56 111 63 13 10 40 59 40 72 0 13
-32 1 -90 -35z"/>
<path d="M5125 4288 c1 -13 4 -30 7 -38 13 -31 16 -118 7 -161 -22 -101 -47
-124 -115 -108 -45 10 -182 12 -236 3 -21 -4 -38 -12 -38 -19 0 -16 -23 -25
-61 -25 -16 0 -32 -6 -35 -13 -6 -18 -42 -19 -75 -1 -26 13 -74 16 -209 13
-30 -1 -87 4 -127 10 -76 12 -296 9 -326 -4 -45 -19 11 -77 95 -98 25 -7 32
-27 15 -43 -14 -14 -7 -72 8 -76 12 -2 10 -9 -10 -30 -14 -16 -21 -28 -15 -28
17 0 -9 -34 -40 -52 -21 -12 -27 -22 -23 -37 4 -16 -5 -30 -32 -55 -20 -19
-44 -32 -51 -29 -8 3 -14 -1 -14 -10 0 -21 23 -27 70 -21 27 4 40 2 40 -6 0
-9 20 -10 72 -7 40 3 79 2 88 -3 8 -4 40 -4 70 1 30 5 82 10 115 10 33 1 65 5
70 9 32 22 216 45 232 29 12 -12 238 19 286 39 26 10 41 12 45 5 4 -6 28 -13
53 -17 35 -5 49 -3 59 9 16 19 40 20 40 0 0 -8 9 -15 19 -15 10 0 21 -7 25
-15 3 -8 16 -15 28 -15 14 0 31 -11 43 -27 11 -15 37 -44 58 -64 43 -42 46
-55 13 -70 -19 -9 -36 -7 -83 9 -32 11 -99 25 -148 31 -50 6 -119 16 -155 23
-81 15 -180 13 -273 -6 -50 -10 -98 -12 -157 -7 -110 9 -137 7 -245 -17 -49
-12 -110 -25 -135 -31 -25 -6 -103 -30 -173 -55 -130 -45 -157 -48 -157 -16 0
16 28 80 39 90 15 12 31 52 31 74 0 14 5 28 11 32 16 10 -12 25 -33 18 -13 -4
-18 0 -18 14 0 14 -7 19 -27 19 -16 0 -38 4 -50 8 -15 5 -27 1 -41 -13 -22
-22 -32 -19 -32 9 0 13 -12 22 -40 29 -40 11 -40 11 -36 53 6 57 27 95 86 157
29 30 47 57 43 66 -3 8 0 14 5 14 15 0 92 110 92 131 0 10 9 23 20 29 11 6 20
15 20 19 0 5 -9 11 -20 14 -31 8 -25 87 6 87 10 0 14 14 14 48 0 26 5 53 11
59 6 6 8 16 5 22 -9 13 -38 -1 -71 -33 -12 -11 -43 -40 -69 -63 -25 -23 -46
-47 -46 -52 0 -5 -11 -12 -25 -15 -14 -4 -25 -14 -26 -24 0 -14 -2 -14 -8 3
-7 16 -9 14 -14 -13 -4 -18 -10 -31 -14 -30 -13 4 -53 -26 -53 -38 0 -6 -25
-38 -56 -70 -30 -33 -58 -71 -61 -86 -3 -15 -14 -35 -24 -44 -11 -9 -19 -25
-19 -35 0 -10 -6 -24 -14 -32 -26 -26 -63 -217 -49 -253 4 -12 3 -15 -5 -10
-7 4 -12 1 -12 -8 0 -9 3 -15 8 -14 4 2 16 -6 27 -17 18 -18 32 -61 52 -159 4
-20 15 -32 34 -40 16 -6 29 -18 29 -26 0 -9 11 -27 25 -40 17 -16 22 -27 15
-39 -10 -20 -32 -119 -31 -146 0 -33 12 -89 23 -112 l11 -22 25 22 c50 45 75
73 107 121 19 26 44 54 57 62 52 31 90 44 101 37 7 -4 17 -8 22 -8 6 0 27 -6
48 -13 33 -12 42 -11 75 5 24 11 38 26 40 41 2 12 7 22 12 22 11 0 20 -27 14
-44 -3 -8 -1 -17 5 -21 6 -3 11 -14 11 -23 0 -9 12 -23 27 -29 36 -17 53 -1
53 49 0 53 24 108 48 108 23 0 44 -16 81 -63 l30 -39 7 29 c13 59 17 69 37 91
38 41 81 56 129 44 23 -6 46 -8 52 -5 5 4 7 -1 3 -10 -3 -9 3 -27 14 -40 10
-14 19 -32 19 -40 0 -23 11 -47 21 -47 5 0 9 15 9 33 0 42 18 107 30 107 6 0
19 8 30 17 23 20 103 40 138 35 12 -2 22 -10 22 -18 0 -8 8 -22 18 -32 10 -10
16 -24 14 -31 -3 -8 5 -5 16 5 43 39 51 43 106 46 38 3 60 0 68 -9 12 -15 32
-18 23 -3 -3 6 1 10 9 10 8 0 19 6 23 13 4 8 20 17 35 21 23 5 30 2 42 -21 7
-16 17 -47 21 -70 7 -46 25 -59 25 -20 0 13 8 31 18 40 23 21 28 21 36 1 7
-19 -11 -57 -25 -49 -5 4 -9 2 -9 -3 0 -5 -11 -14 -24 -20 -15 -7 -27 -24 -34
-53 -6 -24 -9 -46 -6 -50 5 -9 44 0 44 10 0 4 6 8 13 8 81 4 135 19 164 44 17
15 41 30 51 33 29 9 100 -24 106 -49 3 -12 17 -27 31 -35 17 -9 25 -22 25 -41
0 -15 4 -31 10 -34 5 -3 7 -18 5 -33 -7 -35 21 -75 36 -52 5 8 12 27 15 42 4
15 12 29 20 32 8 3 14 15 14 26 0 11 17 55 38 98 21 42 37 82 35 89 -2 6 5 14
16 18 16 5 21 15 21 44 0 21 11 59 25 85 16 30 25 63 25 91 0 31 4 43 13 40 9
-4 12 15 12 74 0 51 -5 85 -12 92 -7 7 -13 23 -13 36 0 13 -6 26 -14 29 -8 3
-18 19 -21 35 -4 16 -11 29 -16 29 -5 0 -20 18 -34 40 -41 65 -196 230 -217
230 -8 0 -21 12 -29 28 -7 15 -22 34 -32 42 -11 8 -57 51 -104 95 -47 44 -94
83 -104 87 -11 4 -22 16 -26 25 -14 38 -60 46 -58 11z m70 -284 c1 -30 -21
-32 -30 -3 -5 13 -2 25 6 30 17 10 24 3 24 -27z m-52 -68 c4 -9 14 -12 27 -9
18 5 20 2 15 -19 -6 -24 20 -60 34 -48 3 3 7 -5 9 -18 2 -13 19 -33 38 -45 18
-12 34 -26 34 -30 0 -4 9 -18 20 -29 11 -12 19 -33 18 -48 -2 -23 -6 -26 -27
-22 -15 3 -29 10 -33 16 -5 7 -19 7 -45 1 -21 -6 -66 -9 -101 -7 -70 4 -87 19
-57 52 29 32 6 49 -59 43 -68 -7 -97 8 -92 45 8 63 16 71 68 78 27 4 55 12 61
18 11 10 60 32 78 35 4 1 9 -5 12 -13z m-243 -126 c0 -5 -5 -10 -11 -10 -5 0
-7 5 -4 10 3 6 8 10 11 10 2 0 4 -4 4 -10z m480 -126 c0 -8 -4 -14 -10 -14 -5
0 -10 9 -10 21 0 11 5 17 10 14 6 -3 10 -13 10 -21z m200 -214 c0 -5 -4 -10
-9 -10 -6 0 -13 5 -16 10 -3 6 1 10 9 10 9 0 16 -4 16 -10z"/>
<path d="M5117 3783 c-4 -3 -7 -11 -7 -17 0 -6 5 -5 12 2 6 6 9 14 7 17 -3 3
-9 2 -12 -2z"/>
<path d="M2182 4223 c-12 -13 -20 -28 -17 -33 3 -5 -6 -19 -20 -32 -14 -12
-25 -27 -25 -34 0 -30 22 -21 77 32 51 49 56 56 40 65 -9 6 -15 14 -12 20 12
19 -21 6 -43 -18z"/>
<path d="M1235 4230 c-3 -5 -1 -10 4 -10 6 0 11 5 11 10 0 6 -2 10 -4 10 -3 0
-8 -4 -11 -10z"/>
<path d="M6501 4186 c-9 -10 -9 -16 -1 -21 17 -10 37 12 24 25 -8 8 -15 6 -23
-4z"/>
<path d="M1136 4172 c-3 -4 -29 -20 -58 -35 -29 -15 -66 -39 -82 -53 -26 -23
-27 -26 -12 -43 21 -23 20 -38 -4 -51 -25 -13 -40 -5 -40 21 0 28 -47 25 -93
-6 -20 -14 -41 -24 -46 -21 -5 3 -17 -4 -27 -15 -18 -20 -231 -129 -253 -129
-6 0 -14 -7 -17 -15 -3 -8 -24 -20 -45 -27 -22 -6 -44 -17 -50 -25 -6 -7 -19
-13 -28 -13 -9 0 -22 -9 -28 -20 -7 -10 -31 -24 -52 -30 -22 -6 -47 -17 -54
-25 -8 -8 -26 -17 -40 -20 -14 -4 -28 -13 -30 -20 -3 -7 -22 -15 -41 -19 -20
-4 -36 -11 -36 -16 0 -6 -7 -10 -15 -10 -19 0 -56 -20 -72 -40 -7 -9 -12 -45
-13 -89 0 -71 1 -73 18 -58 10 10 21 17 25 17 4 0 51 26 104 58 54 32 105 61
113 65 8 4 29 16 45 27 17 11 37 23 45 26 12 6 133 74 200 114 8 5 47 27 85
49 39 23 93 54 120 71 28 16 57 33 65 37 32 17 117 68 170 102 62 41 119 73
170 99 19 9 37 19 40 22 3 3 21 13 40 22 l35 17 -28 0 c-16 1 -40 10 -54 21
-27 21 -48 26 -57 12z"/>
<path d="M6465 4120 c-3 -5 -4 -14 -1 -19 8 -12 -10 -58 -28 -77 -10 -9 -13
-33 -12 -76 2 -37 -1 -66 -8 -70 -6 -4 -10 -33 -10 -65 1 -37 -4 -62 -13 -72
-8 -7 -12 -23 -9 -34 2 -10 0 -31 -5 -45 -13 -33 -19 -151 -9 -157 4 -3 11
-20 14 -39 7 -37 29 -62 46 -51 5 3 10 13 10 22 0 13 2 13 16 2 15 -12 16 -11
9 11 -14 43 -14 114 1 131 12 14 11 15 -16 11 -24 -3 -29 -1 -24 11 3 8 1 18
-5 22 -16 9 -13 35 3 35 19 0 17 41 -3 56 -8 6 -11 16 -6 24 6 10 9 9 16 -1 7
-11 9 -10 9 4 0 9 11 23 25 29 27 12 27 11 30 148 1 41 7 86 14 98 11 21 10
27 -10 45 -22 21 -23 22 -4 25 30 6 42 21 25 32 -20 13 -47 13 -55 0z m5 -229
c0 -11 -4 -23 -10 -26 -6 -4 -10 5 -10 19 0 14 5 26 10 26 6 0 10 -9 10 -19z"/>
<path d="M2039 3918 c-24 -18 -65 -46 -90 -63 -26 -16 -88 -59 -139 -95 -87
-62 -207 -145 -394 -275 -48 -33 -115 -81 -149 -106 -34 -25 -90 -64 -124 -85
-63 -40 -187 -125 -443 -303 -80 -56 -270 -185 -422 -287 -237 -158 -278 -189
-278 -210 0 -13 4 -24 9 -24 6 0 40 23 76 50 36 28 68 50 71 50 4 0 58 37 159
108 28 20 58 44 68 54 10 10 21 18 26 18 4 0 19 10 33 23 14 13 39 32 55 43
17 10 69 46 118 79 48 33 104 71 124 85 20 14 55 40 76 58 22 17 43 32 47 32
4 0 48 30 99 66 51 37 126 90 168 118 42 29 96 67 121 85 25 18 81 56 125 84
44 29 107 72 140 97 33 25 67 50 76 55 66 41 309 219 346 254 12 12 24 21 27
21 9 0 71 44 101 73 40 37 28 34 -26 -5z"/>
<path d="M3858 3928 c9 -9 15 -9 24 0 9 9 7 12 -12 12 -19 0 -21 -3 -12 -12z"/>
<path d="M2640 3850 c0 -5 5 -10 10 -10 6 0 10 5 10 10 0 6 -4 10 -10 10 -5 0
-10 -4 -10 -10z"/>
<path d="M1946 3755 c-3 -8 -14 -15 -25 -15 -20 0 -37 -17 -27 -27 6 -7 76 38
76 50 0 13 -18 7 -24 -8z"/>
<path d="M3955 3729 c-4 -6 -5 -12 -3 -14 7 -7 48 7 48 16 0 13 -37 11 -45 -2z"/>
<path d="M2229 3667 c-71 -60 -95 -85 -86 -93 10 -10 28 7 21 19 -3 7 2 3 10
-7 16 -20 16 -20 30 -1 8 11 12 23 10 27 -2 3 6 10 18 13 25 8 71 53 81 79 12
30 -19 16 -84 -37z"/>
<path d="M6457 3673 c-12 -11 -8 -23 8 -23 8 0 15 7 15 15 0 16 -12 20 -23 8z"/>
<path d="M6450 3620 c0 -5 5 -10 10 -10 6 0 10 5 10 10 0 6 -4 10 -10 10 -5 0
-10 -4 -10 -10z"/>
<path d="M3883 3603 c-15 -5 -18 -33 -4 -33 8 0 25 30 19 35 -2 1 -9 0 -15 -2z"/>
<path d="M2358 3543 c-18 -16 -39 -32 -46 -38 -7 -5 -23 -19 -35 -30 -30 -28
-213 -174 -262 -210 -22 -15 -47 -36 -56 -45 -17 -17 -250 -201 -325 -258 -24
-18 -44 -37 -44 -42 0 -6 -5 -10 -10 -10 -9 0 -99 -62 -137 -95 -6 -5 -35 -29
-65 -52 -186 -148 -384 -307 -388 -312 -11 -14 -88 -71 -97 -71 -4 0 -14 -9
-21 -20 -7 -11 -18 -20 -25 -20 -7 0 -33 -20 -57 -45 -24 -25 -50 -45 -56 -45
-7 0 -14 -4 -16 -9 -1 -5 -48 -43 -103 -85 -147 -111 -154 -117 -220 -171 -33
-27 -109 -86 -169 -130 -60 -44 -125 -94 -145 -112 -20 -18 -46 -40 -59 -50
-21 -16 -23 -25 -20 -92 l3 -74 97 89 c53 49 113 103 134 119 21 17 79 66 129
110 86 75 106 91 181 147 17 13 69 57 115 99 46 42 125 109 174 150 50 40 115
95 146 123 30 28 81 71 113 96 32 25 75 61 96 80 20 19 68 60 105 90 38 30 90
74 115 98 26 23 49 42 52 42 3 0 23 16 44 36 22 19 52 45 68 57 15 12 38 31
51 42 53 46 71 61 97 78 15 9 44 32 65 51 21 19 76 67 123 106 167 142 195
166 269 232 42 37 81 68 86 68 15 0 152 129 138 130 -6 0 -26 -12 -45 -27z"/>
<path d="M1570 3480 c-13 -8 -12 -10 3 -10 9 0 17 5 17 10 0 12 -1 12 -20 0z"/>
<path d="M6384 3375 c-8 -21 4 -35 32 -35 27 0 28 3 14 31 -13 22 -38 25 -46
4z"/>
<path d="M2630 3361 c0 -6 5 -13 10 -16 6 -3 10 1 10 9 0 9 -4 16 -10 16 -5 0
-10 -4 -10 -9z"/>
<path d="M6262 3260 c-16 -29 -27 -38 -39 -33 -12 5 -15 2 -10 -10 10 -27 -29
-106 -58 -117 -14 -5 -25 -14 -25 -19 0 -16 36 -31 74 -31 36 0 41 7 52 66 7
41 23 64 42 64 10 0 4 7 -16 17 l-32 16 25 25 c25 25 32 47 17 56 -4 2 -18
-13 -30 -34z"/>
<path d="M6350 3251 c0 -47 14 -59 41 -35 24 22 24 50 0 64 -33 17 -41 12 -41
-29z"/>
<path d="M4943 2994 c-30 -34 -35 -36 -85 -32 -29 2 -61 8 -70 12 -13 6 -20 1
-29 -18 -15 -32 -87 -56 -169 -56 -61 0 -89 18 -91 56 0 17 -1 17 -9 -2 -10
-25 -42 -31 -147 -30 -45 1 -72 -3 -70 -9 7 -22 117 -32 314 -28 212 3 259 11
331 55 20 13 44 19 62 16 24 -4 30 -1 30 14 0 22 -17 58 -28 58 -4 0 -21 -16
-39 -36z"/>
<path d="M4150 2961 c0 -6 12 -13 28 -17 15 -3 33 -7 40 -10 6 -2 12 3 12 11
0 9 -10 15 -24 15 -13 0 -31 3 -40 6 -9 3 -16 1 -16 -5z"/>
<path d="M2940 2920 c0 -5 5 -10 10 -10 6 0 10 5 10 10 0 6 -4 10 -10 10 -5 0
-10 -4 -10 -10z"/>
<path d="M4970 2765 c-7 -8 -29 -15 -49 -15 -20 0 -43 -6 -49 -12 -10 -10 -17
-10 -32 0 -12 7 -21 8 -25 2 -3 -6 -15 -10 -25 -10 -10 0 -20 -3 -23 -7 -2 -5
-2 -2 -1 5 4 14 -18 16 -31 3 -14 -14 -126 -21 -147 -10 -12 6 -18 6 -18 -1 0
-12 -83 -2 -88 12 -2 4 -10 8 -18 8 -9 0 -12 -5 -8 -11 5 -8 1 -8 -14 0 -11 6
-29 10 -39 9 -41 -3 -72 3 -87 17 -20 20 -136 21 -136 1 0 -7 9 -16 20 -19 16
-4 19 -11 14 -35 -4 -17 -1 -32 5 -36 6 -4 11 -16 11 -27 0 -13 4 -18 12 -13
8 5 9 2 5 -10 -4 -10 -7 -22 -7 -27 0 -5 -11 -9 -23 -9 -21 0 -24 -5 -25 -45
0 -32 5 -48 16 -54 9 -5 17 -18 17 -28 0 -10 5 -17 11 -16 6 1 17 -9 24 -22 8
-16 22 -25 37 -25 13 0 23 -4 23 -10 0 -5 -5 -10 -12 -10 -8 0 -9 -3 -2 -10
11 -11 81 -20 200 -24 45 -2 86 -6 92 -10 6 -4 23 0 36 9 23 15 50 23 101 28
11 1 24 8 28 15 4 6 14 12 22 12 28 0 94 44 99 66 4 14 14 24 24 24 14 0 18 9
19 40 1 26 -2 40 -11 40 -7 0 -20 6 -29 13 -23 17 -12 57 17 57 19 1 19 2 4
11 -21 12 -24 29 -4 29 7 0 39 25 70 55 50 49 53 55 32 55 -13 0 -29 -7 -36
-15z"/>
<path d="M556 2723 c-6 -14 -5 -15 5 -6 7 7 10 15 7 18 -3 3 -9 -2 -12 -12z"/>
<path d="M419 2613 c-13 -16 -12 -17 4 -4 9 7 17 15 17 17 0 8 -8 3 -21 -13z"/>
<path d="M360 2596 c0 -8 -6 -17 -12 -19 -7 -3 -3 -6 8 -6 21 -1 39 21 27 33
-11 11 -23 6 -23 -8z"/>
<path d="M283 2525 c-20 -17 -23 -24 -12 -25 8 0 25 11 37 25 28 32 12 32 -25
0z"/>
<path d="M120 2425 c0 -15 -4 -24 -10 -20 -5 3 -10 -1 -10 -9 0 -20 2 -20 30
4 20 18 21 21 6 35 -15 15 -16 14 -16 -10z"/>
<path d="M160 2434 c0 -8 5 -12 10 -9 6 3 10 10 10 16 0 5 -4 9 -10 9 -5 0
-10 -7 -10 -16z"/>
<path d="M70 2381 c0 -6 -10 -11 -22 -11 -12 0 -18 -3 -15 -7 4 -3 -2 -12 -13
-20 -11 -8 -20 -19 -20 -25 0 -7 7 -5 18 3 9 8 29 21 45 29 28 14 34 25 17 35
-5 3 -10 1 -10 -4z"/>
<path d="M149 2053 c-13 -17 -13 -17 6 -3 11 8 22 16 24 17 2 2 0 3 -6 3 -6 0
-17 -8 -24 -17z"/>
<path d="M4080 1990 c-11 -7 -6 -10 20 -10 26 0 31 3 20 10 -8 5 -17 10 -20
10 -3 0 -12 -5 -20 -10z"/>
<path d="M186 1975 c-11 -8 -17 -17 -14 -20 2 -3 13 4 23 15 21 23 18 25 -9 5z"/>
<path d="M35 1970 c-3 -5 -1 -10 4 -10 6 0 11 5 11 10 0 6 -2 10 -4 10 -3 0
-8 -4 -11 -10z"/>
<path d="M3858 1953 c-10 -2 -18 -9 -18 -14 0 -14 26 -11 40 6 13 15 9 16 -22
8z"/>
</g>
</svg>
